<?xml version="1.0" encoding="utf-8"?>
<!-- Generator: Adobe Illustrator 21.1.0, SVG Export Plug-In . SVG Version: 6.00 Build 0)  -->
<svg version="1.1" id="Calque_1" xmlns="http://www.w3.org/2000/svg" xmlns:xlink="http://www.w3.org/1999/xlink" x="0px" y="0px"
	 viewBox="0 0 50.3 8.5" style="enable-background:new 0 0 50.3 8.5;" xml:space="preserve">
<style type="text/css">
	.st0{fill:#1D1D1B;}
	.st1{fill:#D42E1A;}
	.st2{fill:#FFFFFF;}
</style>
<rect x="1" y="1.2" class="st0" width="6.8" height="6.1"/>
<rect x="1" y="1.2" class="st1" width="6.8" height="6.1"/>
<polygon class="st2" points="1.4,2.5 1.4,2.5 2.2,1.8 3.6,1.8 4.3,2.5 4.3,3.5 3,3.5 3,2.8 2.8,2.8 2.8,3.8 3.6,4 4.3,4.6 4.3,6.3 
	3.6,6.9 2.1,6.9 1.4,6.3 1.4,5.4 2.8,5.4 2.8,6.1 3,6.1 3,4.9 2.3,4.9 1.4,4.2 "/>
<polygon class="st2" points="4.6,2.5 4.6,2.5 5.3,1.7 6.7,1.7 7.5,2.5 7.5,6.3 6.8,6.9 5.3,6.9 4.6,6.3 "/>
<rect x="5.9" y="2.7" class="st1" width="0.3" height="3.3"/>
<path class="st0" d="M10.5,6.4h0.6V2.8h-0.6V6.4z M10.5,2.3h0.6V1.6h-0.6V2.3z"/>
<path class="st0" d="M12.3,2.8h0.5l0.1,0.3c0.2-0.2,0.5-0.4,1.3-0.4c1.2,0,1.3,0.6,1.3,1.5v2.2h-0.6V4.3c0-0.6-0.1-1-0.9-1
	c-0.9,0-1.1,0.5-1.1,1.1v2h-0.6V2.8z"/>
<path class="st0" d="M16.3,2.8H17V2.5c0-0.7,0.2-1.2,1.2-1.2h0.4v0.6h-0.3c-0.5,0-0.6,0.3-0.6,0.6v0.3h0.9v0.6h-0.9v3.1H17V3.4h-0.7
	V2.8z"/>
<path class="st0" d="M19.1,4.6c0-1.2,0.5-1.9,1.8-1.9s1.8,0.7,1.8,1.9s-0.5,1.9-1.8,1.9S19.1,5.8,19.1,4.6 M22,4.6
	c0-0.8-0.3-1.3-1.2-1.3c-0.9,0-1.2,0.5-1.2,1.3s0.3,1.3,1.2,1.3C21.7,5.9,22,5.5,22,4.6"/>
<path class="st0" d="M24.5,5c-0.1,0.1-0.1,0.1-0.1,0.2c0,0.2,0.2,0.2,0.7,0.2c1.4,0,1.8,0.2,1.8,1s-0.5,1.1-1.8,1.1
	c-1.2,0-1.7-0.2-1.7-0.9c0-0.4,0.2-0.8,0.7-0.9c-0.1-0.1-0.2-0.2-0.2-0.4c0-0.2,0.1-0.4,0.2-0.5c-0.3-0.2-0.4-0.5-0.4-0.9
	c0-0.8,0.5-1.2,1.6-1.2c0.1,0,0.2,0,0.2,0l1.4-0.2V3h-0.6c0.3,0.2,0.5,0.4,0.5,0.9c0,0.8-0.5,1.2-1.6,1.2C24.8,5.1,24.6,5.1,24.5,5
	 M26.2,6.5C26.2,6.1,25.9,6,25,6c-1,0-1.1,0.2-1.1,0.5C23.9,6.9,24.2,7,25,7C26,7.1,26.2,6.9,26.2,6.5 M26,3.9
	c0-0.5-0.3-0.6-0.9-0.6c-0.7,0-0.9,0.2-0.9,0.6c0,0.5,0.3,0.7,0.9,0.7S26,4.4,26,3.9"/>
<path class="st0" d="M27.8,2.8h0.5l0.1,0.4c0.1-0.3,0.6-0.5,1.2-0.5v0.6c-0.9,0-1.2,0.5-1.2,1.1v1.9h-0.6V2.8z"/>
<path class="st0" d="M30,5.4c0-1,0.6-1.3,2.4-1.3h0.2c0-0.5-0.1-0.8-0.9-0.8c-0.5,0-0.8,0.2-1.1,0.3l-0.3-0.5
	c0.2-0.2,0.8-0.4,1.5-0.4c1.2,0,1.5,0.4,1.5,1.5v1.3c0,0.4,0,0.4,0.4,0.4v0.6c0,0-0.1,0-0.3,0c-0.4,0-0.5-0.1-0.6-0.4
	c-0.2,0.3-0.6,0.5-1.4,0.5C30.3,6.5,30,6,30,5.4 M32.6,4.8V4.6h-0.2c-1.5,0-1.8,0.2-1.8,0.7c0,0.4,0.2,0.6,0.8,0.6
	C32.3,5.9,32.6,5.6,32.6,4.8"/>
<path class="st0" d="M34.5,2.8H35l0.1,0.4c0.2-0.3,0.6-0.5,1.4-0.5c1.2,0,1.6,0.8,1.6,1.9s-0.3,1.9-1.6,1.9c-0.8,0-1.1-0.1-1.3-0.4
	v1.5h-0.6V2.8H34.5z M37.4,4.6c0-0.8-0.2-1.3-1.1-1.3c-0.9,0-1.2,0.3-1.2,1.3s0.3,1.3,1.2,1.3C37.2,5.9,37.4,5.4,37.4,4.6"/>
<path class="st0" d="M39,1.3h0.6v1.8c0.1-0.2,0.5-0.4,1.3-0.4c1.2,0,1.3,0.6,1.3,1.5v2.2h-0.6V4.3c0-0.6-0.1-1-0.9-1
	c-0.9,0-1.1,0.5-1.1,1.1v2H39V1.3z"/>
<path class="st0" d="M43.3,1.6H44v0.8h-0.6V1.6H43.3z M43.3,2.8H44v3.7h-0.6V2.8H43.3z"/>
<path class="st0" d="M44.9,4.6c0-1.1,0.3-1.9,1.8-1.9s1.6,1,1.5,2.2h-2.7c0,0.7,0.3,1.1,1.2,1.1c0.6,0,0.9-0.2,1.2-0.4L48.2,6
	c-0.4,0.3-0.8,0.5-1.5,0.5C45.2,6.5,44.9,5.7,44.9,4.6 M45.6,4.3h2.1c0-0.6-0.1-1-1-1C45.9,3.3,45.6,3.7,45.6,4.3"/>
</svg>
